<svg width="210" height="111" viewBox="0 0 210 111" fill="none" xmlns="http://www.w3.org/2000/svg">
<rect width="210" height="111" fill="#FFCC00"/>
<path d="M71.8913 42.7275C76.323 39.2838 79.9995 41.6588 84.9063 47.3398C85.4573 47.981 86.1983 47.2305 86.621 46.8648C87.039 46.4943 93.5133 40.666 93.8315 40.4C94.145 40.1198 94.525 39.5972 94.0263 39.013C92.8249 37.5269 91.6483 36.021 90.497 34.4958C81.909 23.262 113.991 15.643 109.065 15.5243C106.557 15.4578 96.4963 15.339 94.9905 15.5053C88.8963 16.1465 81.244 21.8418 77.3918 24.497C72.352 27.9455 70.471 29.969 70.1623 30.2493C68.7373 31.4938 69.9343 34.3675 67.3503 36.6333C64.619 39.0225 62.9138 37.2128 61.332 38.5998C60.5483 39.2933 58.3538 40.9368 57.7268 41.483C57.095 42.0387 56.981 42.9745 57.627 43.7203C57.627 43.7203 63.631 50.3513 64.1345 50.9403C64.6333 51.5198 65.9918 52.0233 66.8278 51.2775C67.6685 50.5365 69.8298 48.6508 70.1908 48.3183C70.5613 48.0048 69.9533 44.2285 71.8913 42.7275ZM99.0043 45.1833C98.4343 44.523 97.7265 44.504 97.1185 45.0455L90.307 50.9925C90.044 51.2311 89.8838 51.5624 89.8599 51.9166C89.8359 52.2709 89.9502 52.6207 90.1788 52.8925L129.575 97.7278C130.497 98.787 132.093 98.8962 133.143 97.9795L137.75 94.1178C138.257 93.6712 138.568 93.0425 138.614 92.3683C138.66 91.6941 138.438 91.0289 137.997 90.5173L99.0043 45.1833ZM151.535 26.1025C151.183 23.756 149.967 24.2453 149.335 25.238C148.704 26.2403 145.911 30.4725 144.761 32.3915C143.621 34.2915 140.809 38.0488 135.575 34.339C130.122 30.4868 132.017 27.7983 132.967 25.9885C133.922 24.1693 136.852 19.0678 137.275 18.436C137.698 17.7948 137.204 15.9328 135.513 16.7118C133.817 17.4908 123.529 21.5805 122.104 27.4468C120.645 33.4128 123.324 38.747 118.066 44.0433L111.687 50.6933L118.095 58.1318L125.951 50.6742C127.823 48.7933 131.822 46.9645 135.442 47.791C143.198 49.5438 147.431 46.632 149.981 41.8155C152.271 37.512 151.891 28.449 151.535 26.1025ZM70.0103 91.0017C69.5351 91.4804 69.2685 92.1275 69.2685 92.802C69.2685 93.4764 69.5351 94.1236 70.0103 94.6023L74.5275 99.0197C75.5155 100.012 77.083 99.5945 78.071 98.6018L101.379 75.6878L94.24 67.5462L70.0103 91.0017Z" fill="black"/>
</svg>
